<?xml version="1.0" encoding="UTF-8"?>
<!DOCTYPE svg PUBLIC "-//W3C//DTD SVG 1.1//EN" "http://www.w3.org/Graphics/SVG/1.1/DTD/svg11.dtd">
<!-- Creator: CorelDRAW 2020 (64-Bit) -->
<svg xmlns="http://www.w3.org/2000/svg" xml:space="preserve" width="324px" height="103px" version="1.1" style="shape-rendering:geometricPrecision; text-rendering:geometricPrecision; image-rendering:optimizeQuality; fill-rule:evenodd; clip-rule:evenodd"
viewBox="0 0 168.16 53.36"
 xmlns:xlink="http://www.w3.org/1999/xlink"
 xmlns:xodm="http://www.corel.com/coreldraw/odm/2003">
 <defs>
  <style type="text/css">
   <![CDATA[
    .fil0 {fill:black;fill-rule:nonzero}
    .fil1 {fill:#FFB200;fill-rule:nonzero}
   ]]>
  </style>
 </defs>
 <g id="Layer_x0020_1">
  <metadata id="CorelCorpID_0Corel-Layer"/>
  <g id="_1659179479616">
   <polygon class="fil0" points="56.38,16.2 56.38,19.93 49.9,19.93 49.9,36.89 45.82,36.89 45.82,19.93 39.29,19.93 39.29,16.2 "/>
   <path class="fil0" d="M60.37 34.15c1.31,0 2.48,-0.34 3.48,-1.05l0 -2.2 -0.94 0c-3.02,0 -4.54,0.63 -4.54,1.91 0,0.8 0.66,1.34 2,1.34zm7.46 -6l0 8.74 -3.61 0 -0.15 -1.17c-1.34,0.93 -2.93,1.4 -4.75,1.4 -2.97,0 -4.82,-1.54 -4.82,-4.14 0,-2.98 3,-4.81 8.04,-4.81 0.6,0 1.02,0 1.31,0.03l0 -0.14c0,-2.2 -0.77,-3.1 -2.47,-3.1 -1.49,0 -3.17,0.33 -5.07,1.04l-1.27 -2.76c2.55,-1.02 4.94,-1.53 7.15,-1.53 3.76,0 5.64,2.12 5.64,6.44l0 0z"/>
   <polygon class="fil0" points="80.37,36.89 76.1,31.16 74.3,33.1 74.3,36.89 70.32,36.89 70.32,15.72 74.3,15.72 74.3,27.74 79.75,21.92 84.61,21.92 78.77,28.25 85.05,36.89 "/>
   <path class="fil0" d="M87.95 28.36l6.86 0c-0.25,-2.39 -1.34,-3.58 -3.31,-3.58 -1.96,0 -3.23,1.43 -3.55,3.58l0 0zm10.52 2.74l-10.41 0c0.51,1.94 1.8,2.9 3.88,2.9 1.4,0 2.9,-0.36 4.59,-1.08l1.25 2.77c-1.99,0.93 -4.08,1.43 -6.25,1.43 -2.24,0 -4.03,-0.71 -5.43,-2.14 -1.4,-1.46 -2.09,-3.31 -2.09,-5.58 0,-2.29 0.69,-4.14 2.09,-5.57 1.4,-1.41 3.22,-2.12 5.4,-2.12 2.29,0 4.02,0.75 5.19,2.3 1.16,1.51 1.78,3.48 1.78,5.9l0 1.19z"/>
   <path class="fil0" d="M104.93 33.04c0.81,0 1.9,-0.33 2.55,-0.77l0 -1.76 -0.67 0c-2.3,0 -3.43,0.49 -3.43,1.47 0,0.65 0.52,1.06 1.55,1.06l0 0zm4.71 -4.3l0 5.82 -1.94 0 -0.1 -0.81c-0.92,0.63 -1.97,0.95 -3.18,0.95 -1.92,0 -3.13,-1 -3.13,-2.64 0,-1.95 1.91,-3.1 5.19,-3.1 0.2,0 0.76,0.02 1,0.02l0 -0.25c0,-1.56 -0.52,-2.23 -1.7,-2.23 -1.02,0 -2.17,0.25 -3.42,0.73l-0.72 -1.55c1.56,-0.65 3.06,-0.97 4.53,-0.97 2.32,0 3.47,1.35 3.47,4.03l0 0z"/>
   <path class="fil0" d="M120.3 27.58l0 6.98 -2.14 0 0 -6.28c0,-1.07 -0.41,-1.61 -1.61,-1.61 -0.86,0 -1.84,0.27 -2.93,0.81l0 7.08 -2.14 0 0 -9.72 1.92 0 0.14 0.97c1.36,-0.72 2.63,-1.1 3.76,-1.1 2.01,0 3,0.84 3,2.87z"/>
   <path class="fil0" d="M128.62 32.36l0 -5.47c-0.77,-0.22 -1.48,-0.33 -2.2,-0.33 -1.64,0 -2.71,1.25 -2.71,3.12 0,1.86 1.07,3.13 2.71,3.13 0.76,0 1.49,-0.16 2.2,-0.45l0 0zm0 -11.66l2.14 0 0 11.8c0,0.54 -0.19,0.92 -0.55,1.17 -1.09,0.68 -2.39,1.02 -3.9,1.02 -1.37,0 -2.51,-0.47 -3.4,-1.39 -0.87,-0.93 -1.31,-2.12 -1.31,-3.6 0,-1.47 0.44,-2.68 1.31,-3.59 0.89,-0.94 2.03,-1.4 3.4,-1.4 0.65,0 1.41,0.11 2.31,0.32l0 -4.33 0 0z"/>
   <path class="fil1" d="M147.5 27.08l4.08 0 0 7.93c-2.65,1.4 -5.24,2.11 -7.75,2.11 -2.82,0 -5.16,-1.01 -7.01,-2.97 -1.85,-2 -2.76,-4.53 -2.76,-7.61 0,-3.07 0.91,-5.61 2.76,-7.57 1.85,-2 4.18,-2.99 7.01,-2.99 2.45,0 4.93,0.6 7.43,1.79l-1.62 3.5c-2.08,-0.87 -3.96,-1.34 -5.66,-1.34 -1.69,0 -3.09,0.63 -4.17,1.86 -1.08,1.23 -1.62,2.79 -1.62,4.75 0,1.97 0.54,3.56 1.62,4.8 1.08,1.22 2.48,1.82 4.17,1.82 0.99,0 2.15,-0.24 3.52,-0.69l0 -5.39 0 0z"/>
   <path class="fil1" d="M163.31 32.53c0.65,-0.8 0.97,-1.85 0.97,-3.13 0,-1.28 -0.34,-2.35 -1,-3.13 -0.66,-0.81 -1.53,-1.21 -2.65,-1.21 -2.24,0 -3.61,1.75 -3.61,4.34 0,2.62 1.36,4.33 3.61,4.33 1.15,0 2.02,-0.41 2.68,-1.2l0 0zm-2.68 4.59c-2.22,0 -4.01,-0.71 -5.41,-2.14 -1.39,-1.46 -2.08,-3.31 -2.08,-5.58 0,-2.29 0.69,-4.14 2.08,-5.57 1.4,-1.41 3.19,-2.12 5.41,-2.12 2.23,0 4.02,0.71 5.42,2.12 1.4,1.43 2.11,3.28 2.11,5.57 0,2.27 -0.71,4.12 -2.11,5.58 -1.4,1.43 -3.19,2.14 -5.42,2.14z"/>
   <polygon class="fil1" points="11.77,38.46 6.15,38.46 6.15,14.9 11.77,14.9 11.77,17.48 8.74,17.48 8.74,35.88 11.77,35.88 "/>
   <polygon class="fil1" points="6.34,53.36 0,53.36 0,0 18.56,0 18.56,2.58 2.58,2.58 2.58,50.78 6.34,50.78 "/>
   <polygon class="fil1" points="28.48,53.36 9.92,53.36 9.92,50.78 25.9,50.78 25.9,2.58 22.14,2.58 22.14,0 28.48,0 "/>
  </g>
 </g>
</svg>
